<?xml version="1.0" standalone="no"?>
<!DOCTYPE svg PUBLIC "-//W3C//DTD SVG 20010904//EN"
 "http://www.w3.org/TR/2001/REC-SVG-20010904/DTD/svg10.dtd">
<svg version="1.0" xmlns="http://www.w3.org/2000/svg"
 width="700.000000pt" height="700.000000pt" viewBox="0 0 700.000000 700.000000"
 preserveAspectRatio="xMidYMid meet">
<metadata>
Created by potrace 1.11, written by Peter Selinger 2001-2013
</metadata>
<g transform="translate(0.000000,700.000000) scale(0.100000,-0.100000)"
fill="#000000" stroke="none">
<path d="M0 3500 l0 -3500 3500 0 3500 0 0 3500 0 3500 -3500 0 -3500 0 0
-3500z m5167 2184 c44 -4 63 -10 68 -22 4 -9 10 -84 12 -167 6 -176 -9 -284
-62 -442 -153 -458 -567 -887 -1165 -1205 -220 -118 -540 -233 -708 -254 -29
-4 -55 -11 -58 -15 -6 -10 43 -11 576 -9 368 1 455 -5 555 -37 93 -29 264
-121 340 -181 67 -53 187 -179 238 -251 277 -386 430 -882 444 -1443 l6 -218
-1056 0 c-1172 0 -1152 -1 -1421 67 -382 95 -698 257 -1069 545 -323 252 -504
474 -640 788 -103 238 -148 456 -148 720 0 357 95 676 293 994 137 218 379
479 543 586 33 21 76 52 95 68 100 83 275 183 475 272 247 108 418 152 755
191 169 20 1732 30 1927 13z"/>
</g>
</svg>
