<?xml version="1.0" standalone="no"?>
<!DOCTYPE svg PUBLIC "-//W3C//DTD SVG 20010904//EN"
 "http://www.w3.org/TR/2001/REC-SVG-20010904/DTD/svg10.dtd">
<svg version="1.0" xmlns="http://www.w3.org/2000/svg"
 width="256.000000pt" height="256.000000pt" viewBox="0 0 256.000000 256.000000"
 preserveAspectRatio="xMidYMid meet">
<metadata>
Created by potrace 1.11, written by Peter Selinger 2001-2013
</metadata>
<g transform="translate(0.000000,256.000000) scale(0.100000,-0.100000)"
fill="#000000" stroke="none">
<path d="M713 2515 c-22 -24 -40 -49 -41 -56 -1 -8 -3 -316 -5 -684 l-2 -670
-23 -23 c-38 -38 -78 -35 -125 9 -17 15 -19 33 -21 141 -1 110 -3 126 -23 154
-12 17 -19 35 -15 39 4 5 1 5 -6 1 -8 -5 -21 -1 -30 7 -11 9 -37 15 -72 15
-65 -1 -112 -31 -133 -88 -19 -49 -17 -903 2 -938 7 -13 10 -26 7 -29 -3 -3 0
-15 6 -27 7 -11 13 -23 14 -26 1 -3 5 -15 9 -27 4 -13 12 -23 17 -23 5 0 7 -4
4 -9 -3 -4 2 -18 12 -29 9 -11 24 -30 32 -42 22 -31 70 -81 70 -72 0 4 6 0 13
-8 17 -20 74 -60 87 -60 5 0 10 -5 10 -12 0 -6 3 -8 6 -5 4 4 19 0 33 -8 75
-42 119 -44 756 -44 460 0 613 3 624 12 8 7 15 10 15 9 2 -7 76 11 82 19 3 5
14 9 25 9 10 0 19 3 19 8 0 4 12 13 28 19 15 7 40 24 56 38 16 14 34 25 39 25
6 0 8 2 5 5 -2 3 14 24 36 48 51 53 93 136 123 242 9 32 10 1187 1 1219 -25
96 -144 130 -231 66 -23 -17 -37 -30 -33 -30 5 0 2 -7 -5 -17 -11 -13 -14
-108 -16 -507 -2 -498 -3 -511 -16 -533 -5 -7 -6 -13 -2 -13 3 0 -1 -12 -9
-28 -20 -37 -89 -112 -104 -112 -7 0 -12 -5 -12 -12 0 -6 -3 -8 -7 -5 -3 4
-11 0 -17 -9 -6 -8 -18 -16 -26 -18 -15 -3 -36 -10 -75 -26 -33 -13 -148 -4
-182 13 -85 44 -111 144 -63 241 14 27 30 51 37 53 7 3 10 9 7 14 -3 5 2 12
11 16 10 3 27 15 40 27 43 40 55 47 65 41 6 -3 10 -2 10 3 0 10 69 33 120 39
19 2 40 6 45 7 8 3 13 756 6 917 -1 15 -17 45 -39 69 -34 38 -43 43 -92 46
-58 5 -90 -6 -125 -41 -27 -27 -46 -90 -32 -104 6 -6 7 -11 2 -11 -12 0 -12
-110 -1 -128 4 -7 4 -18 -1 -24 -10 -17 -10 -39 0 -60 4 -10 4 -18 0 -18 -5 0
-8 -21 -8 -46 1 -36 -4 -54 -23 -76 -14 -16 -27 -27 -30 -24 -2 3 -13 1 -23
-4 -12 -7 -20 -7 -24 0 -4 6 -10 8 -15 5 -5 -3 -18 8 -29 24 -20 27 -21 43
-22 292 -1 240 -3 266 -20 290 -10 14 -16 29 -12 33 3 3 1 6 -6 6 -7 0 -25 8
-39 19 -29 20 -104 25 -135 9 -29 -15 -57 -41 -57 -54 0 -7 -6 -14 -14 -17
-12 -5 -15 -101 -15 -649 -1 -556 -3 -683 -11 -683 -1 0 -3 -9 -5 -19 -2 -10
-10 -23 -17 -27 -7 -5 -8 -9 -3 -9 6 0 1 -7 -9 -15 -11 -8 -16 -15 -12 -15 10
0 -41 -50 -84 -82 -90 -66 -224 -83 -313 -39 -35 17 -45 26 -35 32 10 7 10 9
-2 9 -18 0 -43 37 -35 50 4 6 1 10 -6 10 -8 0 -10 11 -5 37 4 21 8 47 10 59 3
21 63 116 77 122 4 2 23 17 41 33 18 16 43 32 56 35 12 3 22 10 22 15 0 5 3 8
8 7 4 -1 23 2 42 6 19 5 47 10 61 11 28 2 73 24 51 25 -8 0 -10 5 -6 12 10 16
11 218 1 218 -5 0 -5 5 -1 12 11 17 11 108 1 108 -5 0 -5 5 -1 12 11 17 11
108 1 108 -5 0 -5 5 -1 12 11 17 11 108 1 108 -5 0 -5 6 0 13 10 17 10 101 -1
108 -5 4 -5 13 0 20 11 18 12 40 1 62 -4 9 -4 17 0 17 4 0 8 16 8 35 0 19 -4
35 -8 35 -5 0 -5 6 0 13 10 16 10 38 0 60 -4 9 -4 17 0 17 4 0 7 39 5 87 -1
49 -2 94 -2 101 0 6 0 32 0 57 0 25 0 52 0 60 0 8 0 35 0 60 0 25 0 51 0 58
-1 6 1 24 3 40 2 15 0 30 -4 33 -5 3 -6 13 -1 22 14 32 -2 113 -28 139 -43 41
-55 46 -115 49 -61 2 -62 1 -102 -41z"/>
</g>
</svg>
